<?xml version="1.0" encoding="UTF-8"?>
<svg width="101px" height="100px" viewBox="0 0 101 100" version="1.1" xmlns="http://www.w3.org/2000/svg" xmlns:xlink="http://www.w3.org/1999/xlink">
    <!-- Generator: Sketch 64 (93537) - https://sketch.com -->
    <title>cooldown</title>
    <desc>Created with Sketch.</desc>
    <g id="App-Symbols" stroke="none" stroke-width="1" fill="none" fill-rule="evenodd">
        <g id="Developer-Portal" transform="translate(-377.000000, 0.000000)" fill="#28A745" fill-rule="nonzero">
            <path d="M427.284154,100 C454.588002,100 477.28437,77.3529305 477.28437,50 C477.28437,22.6960508 454.539011,0 427.235163,0 C399.882324,0 377.28437,22.6960508 377.28437,50 C377.28437,77.3529305 399.931315,100 427.284154,100 Z M401.998377,55.3191489 C400.055523,55.3191489 398.560966,53.8667286 398.560966,51.9301351 C398.560966,50.0419291 400.055523,48.5894096 401.998377,48.5894096 L424.615181,48.5894096 L424.615181,19.2980731 C424.615181,17.4098672 426.109636,15.9574468 428.05249,15.9574468 C429.995343,15.9574468 431.539689,17.4098672 431.539689,19.2980731 L431.539689,51.9301351 C431.539689,53.8667286 429.995343,55.3191489 428.05249,55.3191489 L401.998377,55.3191489 Z" id="cooldown"></path>
        </g>
    </g>
</svg>