<?xml version="1.0" encoding="UTF-8"?>
<svg width="89px" height="112px" viewBox="0 0 89 112" version="1.1" xmlns="http://www.w3.org/2000/svg" xmlns:xlink="http://www.w3.org/1999/xlink">
    <!-- Generator: Sketch 64 (93537) - https://sketch.com -->
    <title>cooldown Symbol</title>
    <desc>Created with Sketch.</desc>
    <g id="App-Symbols" stroke="none" stroke-width="1" fill="none" fill-rule="evenodd">
        <g id="Developer-Portal" transform="translate(-1054.000000, -195.000000)" fill-rule="nonzero">
            <g id="cooldown-Symbol" transform="translate(1054.000000, 195.000000)">
                <path d="M38.1812213,60.6674552 C39.0452741,60.6674552 39.7941022,56.5633091 40.4277055,48.3550171 L44.4022069,46.0970204 L55.2024247,39.0674691 L54.4679887,51.8059242 L54.4679887,56.3219001 L45.9141666,61.0934896 C44.5317352,61.8603569 44.0997973,63.2662759 44.7477926,64.3739681 C45.5254048,65.6946776 46.9078362,65.8650966 48.2470915,65.0982285 L54.4679887,61.6047345 L54.4679887,69.3159776 C54.4248126,70.8923086 55.4616583,72 56.973618,72 C58.615283,72 59.565688,70.8923086 59.565688,69.3159776 L59.565688,61.6047345 L65.7434975,65.0982285 C67.0826644,65.8650966 68.4650958,65.6946776 69.1995318,64.4165716 C69.8907918,63.2662759 69.4587654,61.8603569 68.0763339,61.0934896 L59.565688,56.3219001 L59.565688,51.8059242 L58.7880758,39.0674691 L69.5883821,46.0544414 L73.6060596,48.3124381 L73.519619,58.026038 C73.519619,59.5597638 74.5132885,60.6674552 75.8092793,60.6674552 C77.3645036,60.6674552 78.1853803,59.5171586 78.1853803,58.026038 L78.2285564,50.9964866 L85.0110967,54.8733584 C86.3935282,55.640217 87.8191357,55.3419894 88.5967478,53.9786756 C89.37436,52.7006071 88.8991575,51.209469 87.5599906,50.4851894 L80.7773618,46.6083176 L86.9551713,43.0721652 C88.2943382,42.3053067 88.8559814,41.0272382 88.0783692,39.7490824 C87.3439332,38.5988382 85.9615018,38.2579443 84.6222464,39.0674691 L76.1116889,43.9668481 L72.1371875,41.7088514 L60.6025337,36.0000349 L72.1803636,30.2911311 L76.154865,27.9905554 L84.6222464,32.8899344 C85.9615018,33.699372 87.4303738,33.3585653 88.0783692,32.2509002 C88.8559814,30.9301654 88.2943382,29.6520969 86.9551713,28.8852383 L80.7773618,25.3490859 L87.5599906,21.5147931 C88.942422,20.7053555 89.4176245,19.3420417 88.5967478,17.9787279 C87.8191357,16.7005722 86.3935282,16.3171865 85.0110967,17.1266241 L78.2285564,21.0035832 L78.1853803,13.9313656 C78.1853803,12.4402275 77.3645036,11.289896 75.8524554,11.3325623 C74.5132885,11.3325623 73.519619,12.3976485 73.519619,13.9313656 L73.6060596,23.6449655 L69.5883821,25.9029621 L58.7880758,32.8899344 L59.565688,20.1514793 L59.565688,15.635486 L68.0763339,10.8639313 C69.4587654,10.0970728 69.8907918,8.69109273 69.1995318,7.58342753 C68.4650958,6.26269275 67.0826644,6.09228944 65.7434975,6.85914799 L59.565688,10.3526341 L59.565688,2.64138231 C59.565688,1.06508618 58.615283,0 56.973618,0 C55.4616583,0 54.4248126,1.06508618 54.4679887,2.64138231 L54.4679887,10.3526341 L48.2470915,6.85914799 C46.9078362,6.13486845 45.5254048,6.26269275 44.7477926,7.58342753 C44.0997973,8.69109273 44.5317352,10.0970728 45.9141666,10.8639313 L54.4679887,15.635486 L54.4679887,20.1514793 L55.2024247,32.9325134 L44.4022069,25.9029621 L40.3844409,23.6023864 C39.7796806,15.4225037 39.0452741,11.3325623 38.1812213,11.3325623 C36.625997,11.3325623 35.8052087,12.4402275 35.8052087,13.9313656 L35.7187681,20.9609169 L37.8788116,28.0331345 L41.8101369,30.2911311 L53.3879669,36.0000349 L41.853313,41.7088514 L37.8356355,43.9668481 L35.7619442,50.9964866 L35.8052087,58.026038 C35.8052087,59.5171586 36.5828209,60.6674552 38.1812213,60.6674552 Z" id="Path" fill="#98E2FF"></path>
                <path d="M25.58597,2.9062 C34.71677,2.9062 40.91797,9.6933 40.91797,19.8984 L40.91797,19.8984 L40.86917,63.7461 C40.86917,65.2109 41.06447,65.748 42.13867,66.7246 C47.99807,71.998 51.02537,78.49218 51.02537,85.91405 C51.02537,99.9766 39.59957,111.4023 25.58597,111.4023 C11.42577,111.4023 -1.77635684e-14,99.9766 -1.77635684e-14,85.91405 C-1.77635684e-14,78.49218 3.02737,71.998 8.88677,66.7246 C9.96097,65.748 10.15627,65.2109 10.15627,63.7461 L10.15627,63.7461 L10.10747,19.8984 C10.10747,9.6933 16.30857,2.9062 25.58597,2.9062 Z M25.58597,9.6933 C20.65427,9.6933 17.33397,13.7949 17.33397,20.1914 L17.33397,20.1914 L17.33397,66.8711 C17.33397,68.873 16.74807,69.8008 15.23437,70.8262 C10.05857,74.293 7.12887,79.81053 7.12887,85.91405 C7.12887,96.02147 15.38087,104.3223 25.58597,104.3223 C35.64457,104.3223 43.89647,96.02147 43.89647,85.91405 C43.89647,79.81053 40.96677,74.293 35.79097,70.8262 C34.27737,69.8008 33.69137,68.873 33.69137,66.8711 L33.69137,66.8711 L33.69137,20.1914 C33.69137,13.7949 30.37107,9.6933 25.58597,9.6933 Z" id="Path-3" fill="#66D4FF"></path>
                <path d="M25.53707,97.73046 C32.03127,97.73046 37.30467,92.45702 37.30467,85.86522 C37.30467,81.27538 34.76567,77.5156 31.00587,75.4648 C29.39457,74.6348 28.85747,74.0488 28.85747,71.6562 L28.85747,62.0859 C28.85747,59.5469 27.39257,57.9844 25.53707,57.9844 C23.63277,57.9844 22.16797,59.5469 22.16797,62.0859 L22.16797,71.6562 C22.16797,74.0488 21.63087,74.6348 20.01957,75.4648 C16.25977,77.5156 13.72067,81.27538 13.72067,85.86522 C13.72067,92.45702 18.99417,97.73046 25.53707,97.73046 Z" id="Path" fill="#32C5FF"></path>
            </g>
        </g>
    </g>
</svg>