<?xml version="1.0" encoding="UTF-8"?>
<svg width="109px" height="95px" viewBox="0 0 109 95" version="1.1" xmlns="http://www.w3.org/2000/svg" xmlns:xlink="http://www.w3.org/1999/xlink">
    <!-- Generator: Sketch 64 (93537) - https://sketch.com -->
    <title>framework</title>
    <desc>Created with Sketch.</desc>
    <g id="App-Symbols" stroke="none" stroke-width="1" fill="none" fill-rule="evenodd">
        <g id="Symbols" transform="translate(-993.000000, -446.000000)" fill="#9B9B9B" fill-rule="nonzero">
            <path d="M1008.0879,540.0918 L1086.6528,540.0918 C1096.7598,540.0918 1101.7398,535.20899 1101.7398,525.19922 L1101.7398,477.6895 C1101.7398,467.7285 1096.7598,462.7969 1086.6528,462.7969 L1076.3008,462.7969 L1076.3008,459.7207 C1076.3008,450.1992 1071.5644,446 1062.4824,446 L1032.2578,446 C1023.664,446 1018.4394,450.1992 1018.4394,459.7207 L1018.4394,462.7969 L1008.0879,462.7969 C998.0293,462.7969 993,467.7285 993,477.6895 L993,525.19922 C993,535.20899 998.0293,540.0918 1008.0879,540.0918 Z M1026.0078,459.1836 C1026.0078,455.1309 1028.0586,453.0801 1032.1601,453.0801 L1062.58,453.0801 C1066.6816,453.0801 1068.7324,455.1309 1068.7324,459.1836 L1068.7324,462.7969 L1026.0078,462.7969 L1026.0078,459.1836 Z M1000.8613,478.0801 C1000.8613,473.0996 1003.4004,470.6094 1008.1855,470.6094 L1086.5548,470.6094 C1091.3398,470.6094 1093.8788,473.0996 1093.8788,478.0801 L1093.8788,490.9707 L1000.8613,490.9707 L1000.8613,478.0801 Z M1008.1855,532.2793 C1003.4004,532.2793 1000.8613,529.8379 1000.8613,524.8086 L1000.8613,498.2949 L1028.1074,498.2949 L1028.1074,501.3223 C1028.1074,505.3262 1030.4023,507.6211 1034.455,507.6211 L1060.2851,507.6211 C1064.3379,507.6211 1066.6816,505.3262 1066.6816,501.3223 L1066.6816,498.2949 L1093.8788,498.2949 L1093.8788,524.8086 C1093.8788,529.8379 1091.3398,532.2793 1086.5548,532.2793 L1008.1855,532.2793 Z" id="framework"></path>
        </g>
    </g>
</svg>