<?xml version="1.0" encoding="UTF-8"?>
<svg width="99px" height="107px" viewBox="0 0 99 107" version="1.1" xmlns="http://www.w3.org/2000/svg" xmlns:xlink="http://www.w3.org/1999/xlink">
    <!-- Generator: Sketch 64 (93537) - https://sketch.com -->
    <title>pckage</title>
    <desc>Created with Sketch.</desc>
    <g id="App-Symbols" stroke="none" stroke-width="1" fill="none" fill-rule="evenodd">
        <g id="Symbols" transform="translate(-695.000000, -466.000000)" fill="#9B9B9B" fill-rule="nonzero">
            <path d="M701.8359,549.53274 L740.2636,571.3101 C742.998,572.8726 745.5859,572.8726 748.3691,571.3101 L786.7478,549.53274 C791.2398,546.94485 793.5838,544.40579 793.5838,537.4234 L793.5838,498.7515 C793.5838,493.6734 791.7288,490.5484 787.6268,488.1558 L753.0566,468.5269 C747.1484,465.1577 741.4355,465.1577 735.5273,468.5269 L701.0058,488.1558 C696.8554,490.5484 695,493.6734 695,498.7515 L695,537.4234 C695,544.40579 697.3926,546.94485 701.8359,549.53274 Z M767.2656,502.2183 L729.4238,480.8316 L738.7988,475.5093 C742.5586,473.3609 746.0254,473.312 749.834,475.5093 L782.0117,493.8687 L767.2656,502.2183 Z M744.3164,515.2066 L706.6211,493.8687 L721.709,485.2261 L759.4043,506.6616 L744.3164,515.2066 Z M706.2304,543.0874 C703.3984,541.4761 702.4218,539.8648 702.4218,537.1792 L702.4218,500.314 L740.459,522.0425 L740.459,562.56985 L706.2304,543.0874 Z M782.4023,543.0874 L748.125,562.56985 L748.125,522.0425 L786.1618,500.314 L786.1618,537.1792 C786.1618,539.8648 785.1858,541.4761 782.4023,543.0874 Z" id="pckage"></path>
        </g>
    </g>
</svg>