<?xml version="1.0" encoding="UTF-8"?>
<svg width="110px" height="109px" viewBox="0 0 110 109" version="1.1" xmlns="http://www.w3.org/2000/svg" xmlns:xlink="http://www.w3.org/1999/xlink">
    <!-- Generator: Sketch 64 (93537) - https://sketch.com -->
    <title>service</title>
    <desc>Created with Sketch.</desc>
    <g id="App-Symbols" stroke="none" stroke-width="1" fill="none" fill-rule="evenodd">
        <g id="Symbols" transform="translate(-384.000000, -432.000000)" fill="#9B9B9B" fill-rule="nonzero">
            <path d="M438.98047,533.748534 C440.24997,533.748534 441.47067,533.602034 442.78907,533.504434 L445.57227,538.875534 C446.10937,539.949734 447.18357,540.535634 448.55077,540.340334 C449.77147,540.096234 450.60157,539.217334 450.79687,537.898934 L451.62697,531.990734 C454.06837,531.355934 456.46097,530.428254 458.75587,529.402854 L463.15037,533.357934 C464.07817,534.236834 465.24997,534.432134 466.47067,533.748534 C467.54497,533.162634 467.98437,531.990734 467.74027,530.721214 L466.51957,524.861844 C468.57027,523.445824 470.57227,521.8345 472.37887,520.027854 L477.79877,522.322784 C479.01977,522.811064 480.19177,522.566924 481.11877,521.443875 C481.94877,520.564968 482.04677,519.295434 481.31477,518.221214 L478.14077,513.143094 C479.60577,511.092334 480.77777,508.895034 481.90077,506.551334 L487.90577,506.844234 C489.17577,506.893134 490.20077,506.209534 490.64077,504.988834 C491.03077,503.768134 490.68977,502.596234 489.66377,501.814934 L484.97677,498.104034 C485.61177,495.760234 486.09977,493.221234 486.34377,490.584534 L491.95877,488.826734 C493.22877,488.387234 493.96077,487.459534 493.96077,486.141134 C493.96077,484.871634 493.22877,483.943834 491.95877,483.504434 L486.34377,481.697734 C486.09977,479.061034 485.61177,476.619634 484.97677,474.227034 L489.66377,470.467334 C490.64077,469.734934 491.03077,468.611834 490.64077,467.391134 C490.20077,466.170434 489.17577,465.486834 487.90577,465.535634 L481.90077,465.779834 C480.77777,463.436034 479.60577,461.238834 478.14077,459.188034 L481.31477,454.109934 C481.99777,453.084534 481.90077,451.814934 481.11877,450.936034 C480.19177,449.813034 479.01977,449.520034 477.79877,450.057134 L472.37887,452.254434 C470.57227,450.545434 468.57027,448.885234 466.51957,447.469234 L467.74027,441.658734 C467.98437,440.340334 467.54497,439.168534 466.47067,438.582534 C465.24997,437.947734 464.07817,438.045434 463.15037,439.022034 L458.75587,442.879434 C456.46097,441.854034 454.06837,441.023934 451.62697,440.340334 L450.79687,434.432134 C450.60157,433.162634 449.72267,432.234934 448.50197,432.039534 C447.18357,431.844234 446.10937,432.381334 445.57227,433.455634 L442.78907,438.826734 C441.47067,438.729034 440.24997,438.631334 438.98047,438.631334 C437.66207,438.631334 436.49027,438.729034 435.17187,438.826734 L432.33987,433.455634 C431.80277,432.381334 430.72857,431.844234 429.41017,432.039534 C428.18947,432.234934 427.31057,433.162634 427.16407,434.432134 L426.28517,440.291534 C423.84377,441.023934 421.49997,441.854034 419.15627,442.879434 L414.76177,439.022034 C413.83397,438.045434 412.66207,437.947734 411.44137,438.582534 C410.36717,439.168534 409.92777,440.340334 410.17187,441.658734 L411.39257,447.469234 C409.39067,448.885234 407.33987,450.545434 405.53317,452.254434 L400.11327,450.057134 C398.89257,449.520034 397.76957,449.813034 396.84177,450.936034 C396.01177,451.814934 395.91407,453.084534 396.59767,454.061034 L399.77147,459.188034 C398.35547,461.238834 397.13477,463.436034 396.01177,465.779834 L390.05467,465.535634 C388.78517,465.486834 387.71097,466.170434 387.27147,467.391134 C386.88087,468.611834 387.22267,469.734934 388.24807,470.467334 L392.93557,474.227034 C392.30077,476.619634 391.81247,479.061034 391.66597,481.697734 L385.95317,483.504434 C384.6836,483.895034 384,484.822734 384,486.141134 C384,487.459534 384.6836,488.387234 385.95317,488.826734 L391.66597,490.633334 C391.81247,493.221234 392.30077,495.760234 392.93557,498.104034 L388.24807,501.814934 C387.27147,502.596234 386.92967,503.768134 387.27147,504.988834 C387.71097,506.209534 388.78517,506.893134 390.05467,506.844234 L396.01177,506.551334 C397.13477,508.895034 398.35547,511.092334 399.77147,513.143094 L396.59767,518.221214 C395.91407,519.295434 396.01177,520.564968 396.84177,521.443875 C397.76957,522.566924 398.89257,522.811064 400.11327,522.322784 L405.53317,520.027854 C407.33987,521.8345 409.39067,523.445824 411.39257,524.861844 L410.17187,530.721214 C409.92777,531.990734 410.36717,533.162634 411.44137,533.748534 C412.66207,534.432134 413.83397,534.236834 414.76177,533.357934 L419.15627,529.402854 C421.49997,530.428254 423.84377,531.355934 426.28517,531.990734 L427.16407,537.898934 C427.31057,539.217334 428.18947,540.096234 429.41017,540.340334 C430.72857,540.535634 431.80277,539.949734 432.33987,538.875534 L435.17187,533.504434 C436.44137,533.602034 437.66207,533.748534 438.98047,533.748534 Z M451.23637,483.064934 C448.99027,476.912634 444.44927,473.543534 438.88277,473.543534 C438.00387,473.543534 437.07617,473.641134 435.46487,473.982934 L421.45117,450.057134 C426.72457,447.469234 432.63277,446.053234 438.98047,446.053234 C460.26957,446.053234 476.96877,462.215334 478.53077,483.064934 L451.23637,483.064934 Z M399.33207,486.189934 C399.33207,472.615734 405.77737,460.652834 415.83597,453.426334 L429.99607,477.498534 C427.31057,480.232934 426.08987,483.211434 426.08987,486.385234 C426.08987,489.461434 427.26177,492.293534 429.94727,495.125534 L415.54297,518.758324 C405.63087,511.482934 399.33207,499.666534 399.33207,486.189934 Z M433.02347,486.336434 C433.02347,483.016134 435.80667,480.428234 438.98047,480.428234 C442.25197,480.428234 444.98637,483.016134 444.98637,486.336434 C444.98637,489.607934 442.25197,492.293534 438.98047,492.293534 C435.80667,492.293534 433.02347,489.607934 433.02347,486.336434 Z M438.98047,526.326684 C432.48637,526.326684 426.43167,524.813014 421.10937,522.176296 L435.46487,498.689934 C436.97857,499.080634 438.00387,499.178234 438.88277,499.178234 C444.49807,499.178234 449.03907,495.711434 451.23637,489.412634 L478.48277,489.412634 C476.91977,510.164534 460.26957,526.326684 438.98047,526.326684 Z" id="service"></path>
        </g>
    </g>
</svg>